<svg xmlns="http://www.w3.org/2000/svg" width="970" height="340" viewBox="0 0 970 340">
  <g id="Group_23" data-name="Group 23" transform="translate(-1083 -805)">
    <g id="Path_7" data-name="Path 7" transform="translate(1083 805)" fill="none">
      <path d="M40,0H280a40,40,0,0,1,0,80H40A40,40,0,0,1,40,0Z" stroke="none"/>
      <path d="M 40 6 C 21.2523193359375 6 6 21.2523193359375 6 40 C 6 58.7476806640625 21.2523193359375 74 40 74 L 280 74 C 298.7476806640625 74 314 58.7476806640625 314 40 C 314 21.2523193359375 298.7476806640625 6 280 6 L 40 6 M 40 0 L 280 0 C 302.0914001464844 0 320 17.90859222412109 320 40 C 320 62.09140777587891 302.0914001464844 80 280 80 L 40 80 C 17.90859985351562 80 0 62.09140777587891 0 40 C 0 17.90859222412109 17.90859985351562 0 40 0 Z" stroke="none" fill="#fff"/>
    </g>
    <g id="Rectangle_32" data-name="Rectangle 32" transform="translate(1083 925)" fill="#ed3572" stroke="#fff" stroke-width="6">
      <rect width="80" height="220" rx="40" stroke="none"/>
      <rect x="3" y="3" width="74" height="214" rx="37" fill="none"/>
    </g>
    <g id="Rectangle_31" data-name="Rectangle 31" transform="translate(1083 925)" fill="#77c593" stroke="#fff" stroke-width="6">
      <rect width="160" height="80" rx="40" stroke="none"/>
      <rect x="3" y="3" width="154" height="74" rx="37" fill="none"/>
    </g>
    <g id="Group_21" data-name="Group 21">
      <g id="Union_15" data-name="Union 15" transform="translate(5653 2284)" fill="none">
        <path d="M-4330-1139a40,40,0,0,1-40-40v-140a40,40,0,0,1,40-40,40,40,0,0,1,40,40v100h40a40,40,0,0,1,40,40,40,40,0,0,1-40,40Z" stroke="none"/>
        <path d="M -4249.99951171875 -1144.999877929688 C -4231.251953125 -1144.999877929688 -4216 -1160.252075195312 -4216 -1178.999633789062 C -4216 -1197.747802734375 -4231.251953125 -1213.00048828125 -4249.99951171875 -1213.00048828125 L -4289.99951171875 -1213.00048828125 L -4295.99951171875 -1213.00048828125 L -4295.99951171875 -1219.00048828125 L -4295.99951171875 -1318.999877929688 C -4295.99951171875 -1337.747436523438 -4311.25244140625 -1352.999633789062 -4330.00048828125 -1352.999633789062 C -4348.748046875 -1352.999633789062 -4364 -1337.747436523438 -4364 -1318.999877929688 L -4364 -1178.999633789062 C -4364 -1160.252075195312 -4348.748046875 -1144.999877929688 -4330.00048828125 -1144.999877929688 L -4249.99951171875 -1144.999877929688 M -4249.99951171875 -1138.999877929688 L -4330.00048828125 -1138.999877929688 C -4352.091796875 -1138.999877929688 -4370 -1156.908203125 -4370 -1178.999633789062 L -4370 -1318.999877929688 C -4370 -1341.091186523438 -4352.091796875 -1358.999633789062 -4330.00048828125 -1358.999633789062 C -4307.9091796875 -1358.999633789062 -4289.99951171875 -1341.091186523438 -4289.99951171875 -1318.999877929688 L -4289.99951171875 -1219.00048828125 L -4249.99951171875 -1219.00048828125 C -4227.908203125 -1219.00048828125 -4210 -1201.090942382812 -4210 -1178.999633789062 C -4210 -1156.908203125 -4227.908203125 -1138.999877929688 -4249.99951171875 -1138.999877929688 Z" stroke="none" fill="#fff"/>
      </g>
      <g id="Group_20" data-name="Group 20">
        <g id="Rectangle_38" data-name="Rectangle 38" transform="translate(1743 925)" fill="none" stroke="#fff" stroke-width="6">
          <rect width="80" height="220" rx="40" stroke="none"/>
          <rect x="3" y="3" width="74" height="214" rx="37" fill="none"/>
        </g>
        <g id="Ellipse_14" data-name="Ellipse 14" transform="translate(1743 805)" fill="#77c593" stroke="#fff" stroke-width="6">
          <circle cx="40" cy="40" r="40" stroke="none"/>
          <circle cx="40" cy="40" r="37" fill="none"/>
        </g>
      </g>
      <g id="Union_10" data-name="Union 10" transform="translate(5853 2283)" fill="none">
        <path d="M-4260-1138h-.011a110.23,110.23,0,0,1-22.158-2.244,109.106,109.106,0,0,1-20.648-6.439,109.891,109.891,0,0,1-18.685-10.189,111.024,111.024,0,0,1-16.28-13.493,111.269,111.269,0,0,1-13.432-16.354,110.573,110.573,0,0,1-10.143-18.77,110.115,110.115,0,0,1-6.409-20.742A111.718,111.718,0,0,1-4370-1247.5h0v-83a27.5,27.5,0,0,1,27.5-27.5,27.5,27.5,0,0,1,27.5,27.5v82h0a55.82,55.82,0,0,0,1.118,11.135,55.173,55.173,0,0,0,3.2,10.372,55.482,55.482,0,0,0,5.071,9.386,55.7,55.7,0,0,0,6.716,8.176,55.484,55.484,0,0,0,8.139,6.747,54.875,54.875,0,0,0,9.344,5.093,54.451,54.451,0,0,0,10.323,3.22A55.164,55.164,0,0,0-4260-1193.25a55.17,55.17,0,0,0,11.084-1.123,54.473,54.473,0,0,0,10.323-3.22,54.847,54.847,0,0,0,9.343-5.093,55.543,55.543,0,0,0,8.14-6.747,55.8,55.8,0,0,0,6.717-8.176,55.579,55.579,0,0,0,5.07-9.386,55.176,55.176,0,0,0,3.2-10.372A55.784,55.784,0,0,0-4205-1248.5v-82a27.5,27.5,0,0,1,27.5-27.5,27.5,27.5,0,0,1,27.5,27.5v83h0a111.717,111.717,0,0,1-2.229,21.266,110.189,110.189,0,0,1-6.41,20.742,110.6,110.6,0,0,1-10.142,18.77,111.213,111.213,0,0,1-13.433,16.354,110.921,110.921,0,0,1-16.28,13.493,109.863,109.863,0,0,1-18.684,10.189,109.115,109.115,0,0,1-20.649,6.439A110.223,110.223,0,0,1-4259.99-1138H-4260Z" stroke="none"/>
        <path d="M -4259.98974609375 -1138.000732421875 L -4259.98974609375 -1144.000732421875 C -4252.93115234375 -1144.000732421875 -4245.8828125 -1144.71435546875 -4239.03955078125 -1146.121826171875 C -4232.36767578125 -1147.493286132812 -4225.80322265625 -1149.540161132812 -4219.52978515625 -1152.205444335938 C -4213.365234375 -1154.825439453125 -4207.4228515625 -1158.065795898438 -4201.8681640625 -1161.836547851562 C -4196.357421875 -1165.577026367188 -4191.1767578125 -1169.87060546875 -4186.47119140625 -1174.598022460938 C -4181.76171875 -1179.329345703125 -4177.486328125 -1184.5341796875 -4173.76513671875 -1190.067749023438 C -4170.005859375 -1195.657592773438 -4166.779296875 -1201.629516601562 -4164.17431640625 -1207.818603515625 C -4161.51708984375 -1214.127685546875 -4159.47802734375 -1220.7255859375 -4158.11376953125 -1227.43017578125 C -4156.77587890625 -1233.994750976562 -4156.06494140625 -1240.765747070312 -4156.00048828125 -1247.497802734375 L -4156.00048828125 -1330.500122070312 C -4156.00048828125 -1342.35546875 -4165.64501953125 -1352.00048828125 -4177.49951171875 -1352.00048828125 C -4189.35498046875 -1352.00048828125 -4199 -1342.35546875 -4199 -1330.500122070312 L -4199 -1248.502319335938 C -4199 -1244.344116210938 -4199.4169921875 -1240.194091796875 -4200.23828125 -1236.170043945312 C -4201.0390625 -1232.23828125 -4202.23486328125 -1228.368286132812 -4203.79296875 -1224.665649414062 C -4205.32177734375 -1221.038208007812 -4207.2119140625 -1217.538696289062 -4209.4150390625 -1214.258544921875 C -4211.599609375 -1211.01513671875 -4214.10302734375 -1207.9677734375 -4216.85693359375 -1205.200439453125 C -4219.61376953125 -1202.431518554688 -4222.64892578125 -1199.915649414062 -4225.88037109375 -1197.72119140625 C -4229.1513671875 -1195.50244140625 -4232.6396484375 -1193.60107421875 -4236.24365234375 -1192.072021484375 C -4239.92333984375 -1190.507202148438 -4243.77978515625 -1189.30419921875 -4247.70703125 -1188.496459960938 C -4251.7294921875 -1187.669677734375 -4255.865234375 -1187.25048828125 -4259.99951171875 -1187.25048828125 C -4264.13525390625 -1187.25048828125 -4268.271484375 -1187.669677734375 -4272.29345703125 -1188.49658203125 C -4276.2216796875 -1189.3046875 -4280.07861328125 -1190.507690429688 -4283.75146484375 -1192.070190429688 C -4287.3623046875 -1193.602416992188 -4290.85107421875 -1195.503784179688 -4294.12255859375 -1197.722900390625 C -4297.35302734375 -1199.916625976562 -4300.38818359375 -1202.432739257812 -4303.142578125 -1205.200439453125 C -4305.89453125 -1207.964721679688 -4308.3984375 -1211.012573242188 -4310.58642578125 -1214.262573242188 C -4312.78662109375 -1217.535522460938 -4314.677734375 -1221.03564453125 -4316.20849609375 -1224.66796875 C -4317.7646484375 -1228.365356445312 -4318.9599609375 -1232.235107421875 -4319.7607421875 -1236.167846679688 C -4320.58203125 -1240.194580078125 -4320.99951171875 -1244.343994140625 -4321.00048828125 -1248.502319335938 L -4321.00048828125 -1330.500122070312 C -4321.00048828125 -1342.35546875 -4330.64501953125 -1352.00048828125 -4342.49951171875 -1352.00048828125 C -4354.35498046875 -1352.00048828125 -4364 -1342.35546875 -4364 -1330.500122070312 L -4364 -1248.527587890625 L -4363.99560546875 -1247.551391601562 C -4363.935546875 -1240.774169921875 -4363.2255859375 -1234.00439453125 -4361.8857421875 -1227.42822265625 C -4360.5224609375 -1220.726440429688 -4358.48388671875 -1214.128784179688 -4355.826171875 -1207.81787109375 C -4353.2197265625 -1201.62646484375 -4349.99267578125 -1195.654663085938 -4346.234375 -1190.06787109375 C -4342.513671875 -1184.534912109375 -4338.23876953125 -1179.329956054688 -4333.52978515625 -1174.598388671875 C -4328.82275390625 -1169.870727539062 -4323.64208984375 -1165.577026367188 -4318.1328125 -1161.836791992188 C -4312.57373046875 -1158.064086914062 -4306.630859375 -1154.823608398438 -4300.470703125 -1152.205810546875 C -4294.19580078125 -1149.539916992188 -4287.6318359375 -1147.492919921875 -4280.96044921875 -1146.121704101562 C -4274.1181640625 -1144.714599609375 -4267.0654296875 -1144.000610351562 -4259.99755859375 -1143.999633789062 L -4259.98974609375 -1138.000732421875 M -4259.99853515625 -1137.999633789062 L -4259.99951171875 -1137.999633789062 L -4260.001953125 -1137.999633789062 L -4260.001953125 -1138.000732421875 C -4260.0029296875 -1138.000732421875 -4260.00732421875 -1138.000732421875 -4260.0107421875 -1138.000732421875 C -4267.4716796875 -1138.000732421875 -4274.92626953125 -1138.755249023438 -4282.1689453125 -1140.24462890625 C -4289.23291015625 -1141.696655273438 -4296.1796875 -1143.86376953125 -4302.81689453125 -1146.683471679688 C -4309.3359375 -1149.453857421875 -4315.62109375 -1152.881103515625 -4321.501953125 -1156.8720703125 C -4327.32763671875 -1160.826904296875 -4332.8046875 -1165.3662109375 -4337.78173828125 -1170.365112304688 C -4342.7587890625 -1175.366088867188 -4347.2783203125 -1180.868408203125 -4351.21337890625 -1186.719482421875 C -4355.18896484375 -1192.629638671875 -4358.6005859375 -1198.944580078125 -4361.35595703125 -1205.489868164062 C -4364.16552734375 -1212.161254882812 -4366.32275390625 -1219.140869140625 -4367.76513671875 -1226.232299804688 C -4369.181640625 -1233.184326171875 -4369.931640625 -1240.333862304688 -4369.99560546875 -1247.497802734375 L -4370 -1247.497802734375 L -4370 -1248.501220703125 L -4370 -1330.500122070312 C -4370 -1345.687622070312 -4357.6884765625 -1358.00048828125 -4342.49951171875 -1358.00048828125 C -4327.3125 -1358.00048828125 -4315.00048828125 -1345.687622070312 -4315.00048828125 -1330.500122070312 L -4315.00048828125 -1248.502319335938 L -4314.99951171875 -1248.502319335938 C -4314.99951171875 -1244.751586914062 -4314.6240234375 -1241.005126953125 -4313.8818359375 -1237.367309570312 C -4313.1591796875 -1233.818359375 -4312.0810546875 -1230.328491210938 -4310.67822265625 -1226.99560546875 C -4309.29736328125 -1223.718627929688 -4307.5908203125 -1220.561157226562 -4305.60693359375 -1217.60986328125 C -4303.63623046875 -1214.6826171875 -4301.3779296875 -1211.932006835938 -4298.890625 -1209.433715820312 C -4296.39892578125 -1206.929931640625 -4293.6591796875 -1204.660766601562 -4290.751953125 -1202.686645507812 C -4287.80615234375 -1200.6884765625 -4284.66162109375 -1198.974243164062 -4281.40771484375 -1197.593505859375 C -4278.09228515625 -1196.18310546875 -4274.619140625 -1195.1005859375 -4271.08447265625 -1194.37353515625 C -4267.4619140625 -1193.628784179688 -4263.73193359375 -1193.25048828125 -4259.99951171875 -1193.25048828125 C -4256.267578125 -1193.25048828125 -4252.53857421875 -1193.628784179688 -4248.9150390625 -1194.37353515625 C -4245.38037109375 -1195.1005859375 -4241.908203125 -1196.18310546875 -4238.591796875 -1197.593505859375 C -4235.33740234375 -1198.974243164062 -4232.1943359375 -1200.6884765625 -4229.24853515625 -1202.686645507812 C -4226.34130859375 -1204.660766601562 -4223.6015625 -1206.929931640625 -4221.10888671875 -1209.433715820312 C -4218.62255859375 -1211.932006835938 -4216.36328125 -1214.6826171875 -4214.39208984375 -1217.60986328125 C -4212.40966796875 -1220.561157226562 -4210.703125 -1223.718627929688 -4209.322265625 -1226.99560546875 C -4207.91943359375 -1230.328491210938 -4206.84033203125 -1233.818359375 -4206.11767578125 -1237.367309570312 C -4205.375 -1241.005126953125 -4205 -1244.751586914062 -4205 -1248.502319335938 L -4205 -1330.500122070312 C -4205 -1345.687622070312 -4192.68798828125 -1358.00048828125 -4177.49951171875 -1358.00048828125 C -4162.31201171875 -1358.00048828125 -4150.00048828125 -1345.687622070312 -4150.00048828125 -1330.500122070312 L -4150.00048828125 -1247.497802734375 L -4150.0048828125 -1247.497802734375 C -4150.06884765625 -1240.333862304688 -4150.81787109375 -1233.184326171875 -4152.234375 -1226.232299804688 C -4153.677734375 -1219.140869140625 -4155.8349609375 -1212.161254882812 -4158.64453125 -1205.489868164062 C -4161.3994140625 -1198.944580078125 -4164.8115234375 -1192.629638671875 -4168.7861328125 -1186.719482421875 C -4172.72119140625 -1180.868408203125 -4177.24072265625 -1175.366088867188 -4182.21875 -1170.365112304688 C -4187.19482421875 -1165.3662109375 -4192.671875 -1160.826904296875 -4198.49853515625 -1156.8720703125 C -4204.3779296875 -1152.881103515625 -4210.66455078125 -1149.453857421875 -4217.1826171875 -1146.683471679688 C -4223.81982421875 -1143.86376953125 -4230.767578125 -1141.696655273438 -4237.83154296875 -1140.24462890625 C -4245.0732421875 -1138.755249023438 -4252.52880859375 -1138.000732421875 -4259.98974609375 -1138.000732421875 C -4259.9921875 -1138.000732421875 -4259.99658203125 -1138.000732421875 -4259.99853515625 -1138.000732421875 L -4259.99853515625 -1137.999633789062 Z" stroke="none" fill="#fff"/>
      </g>
      <g id="Union_14" data-name="Union 14" transform="translate(3191 -3225.001) rotate(-90)" fill="none">
        <path d="M-4260-1138h-.011a110.23,110.23,0,0,1-22.158-2.244,109.106,109.106,0,0,1-20.648-6.439,109.891,109.891,0,0,1-18.685-10.189,111.024,111.024,0,0,1-16.28-13.493,111.269,111.269,0,0,1-13.432-16.354,110.573,110.573,0,0,1-10.143-18.77,110.115,110.115,0,0,1-6.409-20.742A111.744,111.744,0,0,1-4370-1248h0v-52.5a27.5,27.5,0,0,1,27.5-27.5,27.5,27.5,0,0,1,27.5,27.5v52h0a55.82,55.82,0,0,0,1.118,11.135,55.173,55.173,0,0,0,3.2,10.372,55.482,55.482,0,0,0,5.071,9.386,55.7,55.7,0,0,0,6.716,8.176,55.484,55.484,0,0,0,8.139,6.747,54.875,54.875,0,0,0,9.344,5.093,54.451,54.451,0,0,0,10.323,3.22A55.164,55.164,0,0,0-4260-1193.25a55.17,55.17,0,0,0,11.084-1.123,54.473,54.473,0,0,0,10.323-3.22,54.847,54.847,0,0,0,9.343-5.093,55.543,55.543,0,0,0,8.14-6.747,55.8,55.8,0,0,0,6.717-8.176,55.579,55.579,0,0,0,5.07-9.386,55.176,55.176,0,0,0,3.2-10.372A55.784,55.784,0,0,0-4205-1248.5v-52a27.5,27.5,0,0,1,27.5-27.5,27.5,27.5,0,0,1,27.5,27.5v52.5h0a111.743,111.743,0,0,1-2.233,21.768,110.189,110.189,0,0,1-6.41,20.742,110.6,110.6,0,0,1-10.142,18.77,111.213,111.213,0,0,1-13.433,16.354,110.921,110.921,0,0,1-16.28,13.493,109.863,109.863,0,0,1-18.684,10.189,109.115,109.115,0,0,1-20.649,6.439A110.223,110.223,0,0,1-4259.99-1138H-4260Z" stroke="none"/>
        <path d="M -4259.98974609375 -1138.000732421875 L -4259.98974609375 -1144.000732421875 C -4252.93115234375 -1144.000732421875 -4245.8828125 -1144.71435546875 -4239.03955078125 -1146.121826171875 C -4232.36767578125 -1147.493286132812 -4225.80322265625 -1149.540161132812 -4219.52978515625 -1152.205444335938 C -4213.365234375 -1154.825439453125 -4207.4228515625 -1158.065795898438 -4201.8681640625 -1161.836547851562 C -4196.357421875 -1165.577026367188 -4191.1767578125 -1169.87060546875 -4186.47119140625 -1174.598022460938 C -4181.76171875 -1179.329345703125 -4177.486328125 -1184.5341796875 -4173.76513671875 -1190.067749023438 C -4170.005859375 -1195.657592773438 -4166.779296875 -1201.629516601562 -4164.17431640625 -1207.818603515625 C -4161.51708984375 -1214.127685546875 -4159.47802734375 -1220.7255859375 -4158.11376953125 -1227.430297851562 C -4156.7431640625 -1234.155151367188 -4156.0322265625 -1241.085083007812 -4156.00048828125 -1248.000122070312 L -4156.00048828125 -1300.500366210938 C -4156.00048828125 -1312.355102539062 -4165.64501953125 -1321.999633789062 -4177.49951171875 -1321.999633789062 C -4189.35498046875 -1321.999633789062 -4199 -1312.355102539062 -4199 -1300.500366210938 L -4199 -1248.502319335938 C -4199 -1244.344116210938 -4199.4169921875 -1240.194091796875 -4200.23828125 -1236.170043945312 C -4201.0390625 -1232.23828125 -4202.23486328125 -1228.368286132812 -4203.79296875 -1224.665649414062 C -4205.32177734375 -1221.038208007812 -4207.2119140625 -1217.538696289062 -4209.4150390625 -1214.258544921875 C -4211.599609375 -1211.01513671875 -4214.10302734375 -1207.9677734375 -4216.85693359375 -1205.200439453125 C -4219.61376953125 -1202.431518554688 -4222.64892578125 -1199.915649414062 -4225.88037109375 -1197.72119140625 C -4229.1513671875 -1195.50244140625 -4232.6396484375 -1193.60107421875 -4236.24365234375 -1192.072021484375 C -4239.92333984375 -1190.507202148438 -4243.77978515625 -1189.30419921875 -4247.70703125 -1188.496459960938 C -4251.7294921875 -1187.669677734375 -4255.865234375 -1187.25048828125 -4259.99951171875 -1187.25048828125 C -4264.13525390625 -1187.25048828125 -4268.271484375 -1187.669677734375 -4272.29345703125 -1188.49658203125 C -4276.2216796875 -1189.3046875 -4280.07861328125 -1190.507690429688 -4283.75146484375 -1192.070190429688 C -4287.3623046875 -1193.602416992188 -4290.85107421875 -1195.503784179688 -4294.12255859375 -1197.722900390625 C -4297.35302734375 -1199.916625976562 -4300.38818359375 -1202.432739257812 -4303.142578125 -1205.200439453125 C -4305.89453125 -1207.964721679688 -4308.3984375 -1211.012573242188 -4310.58642578125 -1214.262573242188 C -4312.78662109375 -1217.535522460938 -4314.677734375 -1221.03564453125 -4316.20849609375 -1224.66796875 C -4317.7646484375 -1228.365356445312 -4318.9599609375 -1232.235107421875 -4319.7607421875 -1236.167846679688 C -4320.58203125 -1240.194580078125 -4320.99951171875 -1244.343994140625 -4321.00048828125 -1248.502319335938 L -4321.00048828125 -1300.500366210938 C -4321.00048828125 -1312.355102539062 -4330.64501953125 -1321.999633789062 -4342.49951171875 -1321.999633789062 C -4354.35498046875 -1321.999633789062 -4364 -1312.355102539062 -4364 -1300.500366210938 L -4363.9990234375 -1248.026977539062 C -4363.96826171875 -1241.089477539062 -4363.25732421875 -1234.15966796875 -4361.8857421875 -1227.42822265625 C -4360.5224609375 -1220.726440429688 -4358.48388671875 -1214.128784179688 -4355.826171875 -1207.81787109375 C -4353.2197265625 -1201.62646484375 -4349.99267578125 -1195.654663085938 -4346.234375 -1190.06787109375 C -4342.513671875 -1184.534912109375 -4338.23876953125 -1179.329956054688 -4333.52978515625 -1174.598388671875 C -4328.82275390625 -1169.870727539062 -4323.64208984375 -1165.577026367188 -4318.1328125 -1161.836791992188 C -4312.57373046875 -1158.064086914062 -4306.630859375 -1154.823608398438 -4300.470703125 -1152.205810546875 C -4294.19580078125 -1149.539916992188 -4287.6318359375 -1147.492919921875 -4280.96044921875 -1146.121704101562 C -4274.1181640625 -1144.714599609375 -4267.0654296875 -1144.000610351562 -4259.99755859375 -1143.999633789062 L -4259.98974609375 -1138.000732421875 M -4259.99853515625 -1137.999633789062 L -4259.99951171875 -1137.999633789062 L -4260.001953125 -1137.999633789062 L -4260.001953125 -1138.000732421875 C -4260.0029296875 -1138.000732421875 -4260.00732421875 -1138.000732421875 -4260.0107421875 -1138.000732421875 C -4267.4716796875 -1138.000732421875 -4274.92626953125 -1138.755249023438 -4282.1689453125 -1140.24462890625 C -4289.23291015625 -1141.696655273438 -4296.1796875 -1143.86376953125 -4302.81689453125 -1146.683471679688 C -4309.3359375 -1149.453857421875 -4315.62109375 -1152.881103515625 -4321.501953125 -1156.8720703125 C -4327.32763671875 -1160.826904296875 -4332.8046875 -1165.3662109375 -4337.78173828125 -1170.365112304688 C -4342.7587890625 -1175.366088867188 -4347.2783203125 -1180.868408203125 -4351.21337890625 -1186.719482421875 C -4355.18896484375 -1192.629638671875 -4358.6005859375 -1198.944580078125 -4361.35595703125 -1205.489868164062 C -4364.16552734375 -1212.161254882812 -4366.32275390625 -1219.140869140625 -4367.76513671875 -1226.232299804688 C -4369.21484375 -1233.346923828125 -4369.96630859375 -1240.668090820312 -4369.9990234375 -1248.000122070312 L -4370 -1248.000122070312 L -4370 -1248.501220703125 L -4370 -1300.500366210938 C -4370 -1315.687744140625 -4357.6884765625 -1327.999633789062 -4342.49951171875 -1327.999633789062 C -4327.3125 -1327.999633789062 -4315.00048828125 -1315.687744140625 -4315.00048828125 -1300.500366210938 L -4315.00048828125 -1248.502319335938 L -4314.99951171875 -1248.502319335938 C -4314.99951171875 -1244.751586914062 -4314.6240234375 -1241.005126953125 -4313.8818359375 -1237.367309570312 C -4313.1591796875 -1233.818359375 -4312.0810546875 -1230.328491210938 -4310.67822265625 -1226.99560546875 C -4309.29736328125 -1223.718627929688 -4307.5908203125 -1220.561157226562 -4305.60693359375 -1217.60986328125 C -4303.63623046875 -1214.6826171875 -4301.3779296875 -1211.932006835938 -4298.890625 -1209.433715820312 C -4296.39892578125 -1206.929931640625 -4293.6591796875 -1204.660766601562 -4290.751953125 -1202.686645507812 C -4287.80615234375 -1200.6884765625 -4284.66162109375 -1198.974243164062 -4281.40771484375 -1197.593505859375 C -4278.09228515625 -1196.18310546875 -4274.619140625 -1195.1005859375 -4271.08447265625 -1194.37353515625 C -4267.4619140625 -1193.628784179688 -4263.73193359375 -1193.25048828125 -4259.99951171875 -1193.25048828125 C -4256.267578125 -1193.25048828125 -4252.53857421875 -1193.628784179688 -4248.9150390625 -1194.37353515625 C -4245.38037109375 -1195.1005859375 -4241.908203125 -1196.18310546875 -4238.591796875 -1197.593505859375 C -4235.33740234375 -1198.974243164062 -4232.1943359375 -1200.6884765625 -4229.24853515625 -1202.686645507812 C -4226.34130859375 -1204.660766601562 -4223.6015625 -1206.929931640625 -4221.10888671875 -1209.433715820312 C -4218.62255859375 -1211.932006835938 -4216.36328125 -1214.6826171875 -4214.39208984375 -1217.60986328125 C -4212.40966796875 -1220.561157226562 -4210.703125 -1223.718627929688 -4209.322265625 -1226.99560546875 C -4207.91943359375 -1230.328491210938 -4206.84033203125 -1233.818359375 -4206.11767578125 -1237.367309570312 C -4205.375 -1241.005126953125 -4205 -1244.751586914062 -4205 -1248.502319335938 L -4205 -1300.500366210938 C -4205 -1315.687744140625 -4192.68798828125 -1327.999633789062 -4177.49951171875 -1327.999633789062 C -4162.31201171875 -1327.999633789062 -4150.00048828125 -1315.687744140625 -4150.00048828125 -1300.500366210938 L -4150.00048828125 -1248.000122070312 L -4150.00146484375 -1248.000122070312 C -4150.0341796875 -1240.668090820312 -4150.78466796875 -1233.346923828125 -4152.234375 -1226.232299804688 C -4153.677734375 -1219.140869140625 -4155.8349609375 -1212.161254882812 -4158.64453125 -1205.489868164062 C -4161.3994140625 -1198.944580078125 -4164.8115234375 -1192.629638671875 -4168.7861328125 -1186.719482421875 C -4172.72119140625 -1180.868408203125 -4177.24072265625 -1175.366088867188 -4182.21875 -1170.365112304688 C -4187.19482421875 -1165.3662109375 -4192.671875 -1160.826904296875 -4198.49853515625 -1156.8720703125 C -4204.3779296875 -1152.881103515625 -4210.66455078125 -1149.453857421875 -4217.1826171875 -1146.683471679688 C -4223.81982421875 -1143.86376953125 -4230.767578125 -1141.696655273438 -4237.83154296875 -1140.24462890625 C -4245.0732421875 -1138.755249023438 -4252.52880859375 -1138.000732421875 -4259.98974609375 -1138.000732421875 C -4259.9921875 -1138.000732421875 -4259.99658203125 -1138.000732421875 -4259.99853515625 -1138.000732421875 L -4259.99853515625 -1137.999633789062 Z" stroke="none" fill="#fff"/>
      </g>
    </g>
  </g>
</svg>
