<svg xmlns="http://www.w3.org/2000/svg" width="320" height="340" viewBox="0 0 320 340">
  <g id="Group_19" data-name="Group 19" transform="translate(-248 -91)">
    <g id="Path_7" data-name="Path 7" transform="translate(248 91)">
      <path d="M 280 77 L 40 77 C 35.00370788574219 77 30.1584587097168 76.02212524414062 25.59887504577637 74.09358215332031 C 21.19329261779785 72.23016357421875 17.23604202270508 69.56192016601562 13.8370418548584 66.16295623779297 C 10.43808364868164 62.76395797729492 7.769833564758301 58.80670928955078 5.906416893005371 54.40112686157227 C 3.977874994277954 49.8415412902832 3 44.99629211425781 3 40 C 3 35.00370788574219 3.977874994277954 30.1584587097168 5.906416893005371 25.59887504577637 C 7.769833564758301 21.19329261779785 10.43808364868164 17.23604202270508 13.8370418548584 13.8370418548584 C 17.23604202270508 10.43808364868164 21.19329261779785 7.769833564758301 25.59887504577637 5.906416893005371 C 30.1584587097168 3.977874994277954 35.00370788574219 3 40 3 L 280 3 C 284.9962768554688 3 289.841552734375 3.977874994277954 294.4011535644531 5.906416893005371 C 298.8067626953125 7.769833564758301 302.7639465332031 10.43808364868164 306.1629638671875 13.8370418548584 C 309.5619506835938 17.23604202270508 312.2301940917969 21.19329261779785 314.0935974121094 25.59887504577637 C 316.0221252441406 30.1584587097168 317 35.00370788574219 317 40 C 317 44.99629211425781 316.0221252441406 49.8415412902832 314.0935974121094 54.40112686157227 C 312.2301940917969 58.80670928955078 309.5619506835938 62.76395797729492 306.1629638671875 66.16295623779297 C 302.7639465332031 69.56192016601562 298.8067626953125 72.23016357421875 294.4011535644531 74.09358215332031 C 289.841552734375 76.02212524414062 284.9962768554688 77 280 77 Z" stroke="none"/>
      <path d="M 40 6 C 21.2523193359375 6 6 21.2523193359375 6 40 C 6 58.7476806640625 21.2523193359375 74 40 74 L 280 74 C 298.7476806640625 74 314 58.7476806640625 314 40 C 314 21.2523193359375 298.7476806640625 6 280 6 L 40 6 M 40 0 L 280 0 C 302.0914001464844 0 320 17.90859222412109 320 40 C 320 62.09140777587891 302.0914001464844 80 280 80 L 40 80 C 17.90859985351562 80 0 62.09140777587891 0 40 C 0 17.90859222412109 17.90859985351562 0 40 0 Z" stroke="none" fill="#fff"/>
    </g>
    <g id="Rectangle_32" data-name="Rectangle 32" transform="translate(248 211)" fill="#ed3572" stroke="#fff" stroke-width="6">
      <rect width="80" height="220" rx="40" stroke="none"/>
      <rect x="3" y="3" width="74" height="214" rx="37" fill="none"/>
    </g>
    <g id="Rectangle_31" data-name="Rectangle 31" transform="translate(248 211)" fill="#77c593" stroke="#fff" stroke-width="6">
      <rect width="160" height="80" rx="40" stroke="none"/>
      <rect x="3" y="3" width="154" height="74" rx="37" fill="none"/>
    </g>
  </g>
</svg>
