<svg xmlns="http://www.w3.org/2000/svg" width="970" height="340" viewBox="0 0 970 340">
  <g id="Group_22" data-name="Group 22" transform="translate(-1083 -805)">
    <g id="Path_7" data-name="Path 7" transform="translate(1083 805)">
      <path d="M 280 77 L 40 77 C 35.00370788574219 77 30.1584587097168 76.02212524414062 25.59887504577637 74.09358215332031 C 21.19329261779785 72.23016357421875 17.23604202270508 69.56192016601562 13.8370418548584 66.16295623779297 C 10.43808364868164 62.76395797729492 7.769833564758301 58.80670928955078 5.906416893005371 54.40112686157227 C 3.977874994277954 49.8415412902832 3 44.99629211425781 3 40 C 3 35.00370788574219 3.977874994277954 30.1584587097168 5.906416893005371 25.59887504577637 C 7.769833564758301 21.19329261779785 10.43808364868164 17.23604202270508 13.8370418548584 13.8370418548584 C 17.23604202270508 10.43808364868164 21.19329261779785 7.769833564758301 25.59887504577637 5.906416893005371 C 30.1584587097168 3.977874994277954 35.00370788574219 3 40 3 L 280 3 C 284.9962768554688 3 289.841552734375 3.977874994277954 294.4011535644531 5.906416893005371 C 298.8067626953125 7.769833564758301 302.7639465332031 10.43808364868164 306.1629638671875 13.8370418548584 C 309.5619506835938 17.23604202270508 312.2301940917969 21.19329261779785 314.0935974121094 25.59887504577637 C 316.0221252441406 30.1584587097168 317 35.00370788574219 317 40 C 317 44.99629211425781 316.0221252441406 49.8415412902832 314.0935974121094 54.40112686157227 C 312.2301940917969 58.80670928955078 309.5619506835938 62.76395797729492 306.1629638671875 66.16295623779297 C 302.7639465332031 69.56192016601562 298.8067626953125 72.23016357421875 294.4011535644531 74.09358215332031 C 289.841552734375 76.02212524414062 284.9962768554688 77 280 77 Z" stroke="none"/>
      <path d="M 40 6 C 21.2523193359375 6 6 21.2523193359375 6 40 C 6 58.7476806640625 21.2523193359375 74 40 74 L 280 74 C 298.7476806640625 74 314 58.7476806640625 314 40 C 314 21.2523193359375 298.7476806640625 6 280 6 L 40 6 M 40 0 L 280 0 C 302.0914001464844 0 320 17.90859222412109 320 40 C 320 62.09140777587891 302.0914001464844 80 280 80 L 40 80 C 17.90859985351562 80 0 62.09140777587891 0 40 C 0 17.90859222412109 17.90859985351562 0 40 0 Z" stroke="none" fill="#fff"/>
    </g>
    <g id="Rectangle_32" data-name="Rectangle 32" transform="translate(1083 925)" fill="#ed3572" stroke="#fff" stroke-width="6">
      <rect width="80" height="220" rx="40" stroke="none"/>
      <rect x="3" y="3" width="74" height="214" rx="37" fill="none"/>
    </g>
    <g id="Rectangle_31" data-name="Rectangle 31" transform="translate(1083 925)" fill="#77c593" stroke="#fff" stroke-width="6">
      <rect width="160" height="80" rx="40" stroke="none"/>
      <rect x="3" y="3" width="154" height="74" rx="37" fill="none"/>
    </g>
    <g id="Group_21" data-name="Group 21">
      <g id="Union_15" data-name="Union 15" transform="translate(5653 2284)">
        <path d="M -4249.99951171875 -1141.999877929688 L -4330.00048828125 -1141.999877929688 C -4334.99658203125 -1141.999877929688 -4339.841796875 -1142.977783203125 -4344.4013671875 -1144.90625 C -4348.80712890625 -1146.769653320312 -4352.76416015625 -1149.437866210938 -4356.1630859375 -1152.836791992188 C -4359.56201171875 -1156.235717773438 -4362.23046875 -1160.192993164062 -4364.09375 -1164.598510742188 C -4366.02197265625 -1169.158081054688 -4367 -1174.003295898438 -4367 -1178.999633789062 L -4367 -1318.999877929688 C -4367 -1323.996215820312 -4366.02197265625 -1328.841430664062 -4364.09375 -1333.401000976562 C -4362.23046875 -1337.806518554688 -4359.56201171875 -1341.763671875 -4356.1630859375 -1345.162719726562 C -4352.76416015625 -1348.561645507812 -4348.80712890625 -1351.229858398438 -4344.4013671875 -1353.09326171875 C -4339.841796875 -1355.021728515625 -4334.99658203125 -1355.999633789062 -4330.00048828125 -1355.999633789062 C -4325.00439453125 -1355.999633789062 -4320.15869140625 -1355.021728515625 -4315.59912109375 -1353.09326171875 C -4311.193359375 -1351.229858398438 -4307.236328125 -1348.561645507812 -4303.8369140625 -1345.16259765625 C -4300.43798828125 -1341.763671875 -4297.76953125 -1337.806396484375 -4295.90625 -1333.40087890625 C -4293.9775390625 -1328.84130859375 -4292.99951171875 -1323.99609375 -4292.99951171875 -1318.999877929688 L -4292.99951171875 -1219.00048828125 L -4292.99951171875 -1216.00048828125 L -4289.99951171875 -1216.00048828125 L -4249.99951171875 -1216.00048828125 C -4245.00341796875 -1216.00048828125 -4240.158203125 -1215.022583007812 -4235.5986328125 -1213.093994140625 C -4231.19287109375 -1211.23046875 -4227.23583984375 -1208.562133789062 -4223.8369140625 -1205.162963867188 C -4220.43798828125 -1201.763916015625 -4217.76953125 -1197.806518554688 -4215.90625 -1193.40087890625 C -4213.97802734375 -1188.841186523438 -4213 -1183.995971679688 -4213 -1178.999633789062 C -4213 -1174.003295898438 -4213.97802734375 -1169.158081054688 -4215.90625 -1164.598510742188 C -4217.76953125 -1160.192993164062 -4220.43798828125 -1156.235717773438 -4223.8369140625 -1152.836791992188 C -4227.23583984375 -1149.437866210938 -4231.19287109375 -1146.769653320312 -4235.5986328125 -1144.90625 C -4240.158203125 -1142.977783203125 -4245.00341796875 -1141.999877929688 -4249.99951171875 -1141.999877929688 Z" stroke="none"/>
        <path d="M -4249.99951171875 -1144.999877929688 C -4231.251953125 -1144.999877929688 -4216 -1160.252075195312 -4216 -1178.999633789062 C -4216 -1197.747802734375 -4231.251953125 -1213.00048828125 -4249.99951171875 -1213.00048828125 L -4289.99951171875 -1213.00048828125 L -4295.99951171875 -1213.00048828125 L -4295.99951171875 -1219.00048828125 L -4295.99951171875 -1318.999877929688 C -4295.99951171875 -1337.747436523438 -4311.25244140625 -1352.999633789062 -4330.00048828125 -1352.999633789062 C -4348.748046875 -1352.999633789062 -4364 -1337.747436523438 -4364 -1318.999877929688 L -4364 -1178.999633789062 C -4364 -1160.252075195312 -4348.748046875 -1144.999877929688 -4330.00048828125 -1144.999877929688 L -4249.99951171875 -1144.999877929688 M -4249.99951171875 -1138.999877929688 L -4330.00048828125 -1138.999877929688 C -4352.091796875 -1138.999877929688 -4370 -1156.908203125 -4370 -1178.999633789062 L -4370 -1318.999877929688 C -4370 -1341.091186523438 -4352.091796875 -1358.999633789062 -4330.00048828125 -1358.999633789062 C -4307.9091796875 -1358.999633789062 -4289.99951171875 -1341.091186523438 -4289.99951171875 -1318.999877929688 L -4289.99951171875 -1219.00048828125 L -4249.99951171875 -1219.00048828125 C -4227.908203125 -1219.00048828125 -4210 -1201.090942382812 -4210 -1178.999633789062 C -4210 -1156.908203125 -4227.908203125 -1138.999877929688 -4249.99951171875 -1138.999877929688 Z" stroke="none" fill="#fff"/>
      </g>
      <g id="Group_20" data-name="Group 20">
        <g id="Rectangle_38" data-name="Rectangle 38" transform="translate(1743 925)" stroke="#fff" stroke-width="6">
          <rect x="3" y="3" width="74" height="214" rx="37" fill="none"/>
        </g>
        <g id="Ellipse_14" data-name="Ellipse 14" transform="translate(1743 805)" fill="#77c593" stroke="#fff" stroke-width="6">
          <circle cx="40" cy="40" r="40" stroke="none"/>
          <circle cx="40" cy="40" r="37" fill="none"/>
        </g>
      </g>
      <g id="Union_10" data-name="Union 10" transform="translate(5853 2283)">
        <path d="M -4259.98974609375 -1141.000732421875 L -4259.99853515625 -1141.000732421875 L -4260.001953125 -1141.000732421875 L -4260.0107421875 -1141.000732421875 C -4267.27099609375 -1141.000732421875 -4274.5224609375 -1141.734985351562 -4281.564453125 -1143.18310546875 C -4288.43017578125 -1144.594360351562 -4295.18603515625 -1146.701049804688 -4301.64404296875 -1149.444580078125 C -4307.98291015625 -1152.138549804688 -4314.09765625 -1155.47265625 -4319.8173828125 -1159.354370117188 C -4325.4853515625 -1163.2021484375 -4330.81396484375 -1167.618896484375 -4335.65576171875 -1172.481811523438 C -4340.49951171875 -1177.348876953125 -4344.896484375 -1182.702514648438 -4348.72412109375 -1188.393676757812 C -4352.58984375 -1194.140869140625 -4355.90966796875 -1200.284423828125 -4358.5908203125 -1206.65380859375 C -4361.3251953125 -1213.146728515625 -4363.4228515625 -1219.934814453125 -4364.8251953125 -1226.830200195312 C -4366.203125 -1233.593383789062 -4366.93359375 -1240.5556640625 -4366.99560546875 -1247.524536132812 L -4367 -1248.005859375 L -4367 -1248.501220703125 L -4367 -1330.500122070312 C -4367 -1333.808837890625 -4366.3525390625 -1337.01708984375 -4365.076171875 -1340.03564453125 C -4363.84228515625 -1342.952758789062 -4362.0751953125 -1345.5732421875 -4359.82421875 -1347.824340820312 C -4357.5732421875 -1350.075439453125 -4354.95263671875 -1351.842407226562 -4352.03564453125 -1353.076293945312 C -4349.01708984375 -1354.35302734375 -4345.80859375 -1355.00048828125 -4342.49951171875 -1355.00048828125 C -4339.19091796875 -1355.00048828125 -4335.98291015625 -1354.35302734375 -4332.96435546875 -1353.076293945312 C -4330.04736328125 -1351.842407226562 -4327.42724609375 -1350.075439453125 -4325.17626953125 -1347.824340820312 C -4322.92529296875 -1345.5732421875 -4321.158203125 -1342.952758789062 -4319.92431640625 -1340.03564453125 C -4318.64794921875 -1337.01708984375 -4318.00048828125 -1333.808837890625 -4318.00048828125 -1330.500122070312 L -4318.00048828125 -1248.502319335938 L -4318.00048828125 -1245.502319335938 L -4317.92333984375 -1245.502319335938 C -4317.77392578125 -1242.556396484375 -4317.4052734375 -1239.629638671875 -4316.8212890625 -1236.767578125 C -4316.0595703125 -1233.027221679688 -4314.9228515625 -1229.347412109375 -4313.443359375 -1225.831787109375 C -4311.98779296875 -1222.378173828125 -4310.189453125 -1219.049194335938 -4308.0966796875 -1215.936157226562 C -4306.01611328125 -1212.845703125 -4303.63427734375 -1209.946411132812 -4301.0166015625 -1207.317016601562 C -4298.396484375 -1204.684204101562 -4295.509765625 -1202.291137695312 -4292.43701171875 -1200.204711914062 C -4289.328125 -1198.095581054688 -4286.01171875 -1196.288208007812 -4282.57958984375 -1194.831909179688 C -4279.0869140625 -1193.34619140625 -4275.42236328125 -1192.202880859375 -4271.68896484375 -1191.43505859375 C -4267.865234375 -1190.649047851562 -4263.9326171875 -1190.25048828125 -4259.99951171875 -1190.25048828125 C -4256.06787109375 -1190.25048828125 -4252.13525390625 -1190.649047851562 -4248.31103515625 -1191.434936523438 C -4244.57958984375 -1192.202514648438 -4240.91455078125 -1193.345703125 -4237.41796875 -1194.832763671875 C -4233.990234375 -1196.286865234375 -4230.67431640625 -1198.094360351562 -4227.564453125 -1200.203857421875 C -4224.49169921875 -1202.290283203125 -4221.60498046875 -1204.683227539062 -4218.98291015625 -1207.317138671875 C -4216.36328125 -1209.94921875 -4213.98193359375 -1212.848266601562 -4211.90380859375 -1215.934204101562 C -4209.8095703125 -1219.052001953125 -4208.01123046875 -1222.380615234375 -4206.5576171875 -1225.830688476562 C -4205.076171875 -1229.350463867188 -4203.939453125 -1233.0302734375 -4203.17822265625 -1236.768676757812 C -4202.396484375 -1240.597045898438 -4202 -1244.545288085938 -4202 -1248.502319335938 L -4202 -1330.500122070312 C -4202 -1333.808837890625 -4201.3525390625 -1337.01708984375 -4200.07568359375 -1340.03564453125 C -4198.84228515625 -1342.952758789062 -4197.0751953125 -1345.5732421875 -4194.82421875 -1347.824340820312 C -4192.5732421875 -1350.075439453125 -4189.95263671875 -1351.842407226562 -4187.03564453125 -1353.076293945312 C -4184.0166015625 -1354.35302734375 -4180.80859375 -1355.00048828125 -4177.49951171875 -1355.00048828125 C -4174.19091796875 -1355.00048828125 -4170.98291015625 -1354.35302734375 -4167.96435546875 -1353.076293945312 C -4165.04736328125 -1351.842407226562 -4162.4267578125 -1350.075439453125 -4160.17626953125 -1347.824340820312 C -4157.92529296875 -1345.5732421875 -4156.158203125 -1342.952758789062 -4154.92431640625 -1340.03564453125 C -4153.64794921875 -1337.01708984375 -4153.00048828125 -1333.808837890625 -4153.00048828125 -1330.500122070312 L -4153.00048828125 -1247.936767578125 L -4153.0048828125 -1247.524536132812 C -4153.06689453125 -1240.552124023438 -4153.796875 -1233.589965820312 -4155.173828125 -1226.831298828125 C -4156.578125 -1219.93359375 -4158.67578125 -1213.145263671875 -4161.4091796875 -1206.654174804688 C -4164.08935546875 -1200.287475585938 -4167.40869140625 -1194.143920898438 -4171.275390625 -1188.393676757812 C -4175.103515625 -1182.701538085938 -4179.5009765625 -1177.347900390625 -4184.3447265625 -1172.481567382812 C -4189.185546875 -1167.618896484375 -4194.51416015625 -1163.2021484375 -4200.18359375 -1159.354248046875 C -4205.89892578125 -1155.474609375 -4212.01318359375 -1152.140502929688 -4218.35595703125 -1149.444458007812 C -4224.81298828125 -1146.701293945312 -4231.56884765625 -1144.594604492188 -4238.435546875 -1143.183227539062 C -4245.47705078125 -1141.734985351562 -4252.728515625 -1141.000732421875 -4259.98974609375 -1141.000732421875 Z" stroke="none"/>
        <path d="M -4259.98974609375 -1138.000732421875 L -4259.98974609375 -1144.000732421875 C -4252.93115234375 -1144.000732421875 -4245.8828125 -1144.71435546875 -4239.03955078125 -1146.121826171875 C -4232.36767578125 -1147.493286132812 -4225.80322265625 -1149.540161132812 -4219.52978515625 -1152.205444335938 C -4213.365234375 -1154.825439453125 -4207.4228515625 -1158.065795898438 -4201.8681640625 -1161.836547851562 C -4196.357421875 -1165.577026367188 -4191.1767578125 -1169.87060546875 -4186.47119140625 -1174.598022460938 C -4181.76171875 -1179.329345703125 -4177.486328125 -1184.5341796875 -4173.76513671875 -1190.067749023438 C -4170.005859375 -1195.657592773438 -4166.779296875 -1201.629516601562 -4164.17431640625 -1207.818603515625 C -4161.51708984375 -1214.127685546875 -4159.47802734375 -1220.7255859375 -4158.11376953125 -1227.43017578125 C -4156.77587890625 -1233.994750976562 -4156.06494140625 -1240.765747070312 -4156.00048828125 -1247.497802734375 L -4156.00048828125 -1330.500122070312 C -4156.00048828125 -1342.35546875 -4165.64501953125 -1352.00048828125 -4177.49951171875 -1352.00048828125 C -4189.35498046875 -1352.00048828125 -4199 -1342.35546875 -4199 -1330.500122070312 L -4199 -1248.502319335938 C -4199 -1244.344116210938 -4199.4169921875 -1240.194091796875 -4200.23828125 -1236.170043945312 C -4201.0390625 -1232.23828125 -4202.23486328125 -1228.368286132812 -4203.79296875 -1224.665649414062 C -4205.32177734375 -1221.038208007812 -4207.2119140625 -1217.538696289062 -4209.4150390625 -1214.258544921875 C -4211.599609375 -1211.01513671875 -4214.10302734375 -1207.9677734375 -4216.85693359375 -1205.200439453125 C -4219.61376953125 -1202.431518554688 -4222.64892578125 -1199.915649414062 -4225.88037109375 -1197.72119140625 C -4229.1513671875 -1195.50244140625 -4232.6396484375 -1193.60107421875 -4236.24365234375 -1192.072021484375 C -4239.92333984375 -1190.507202148438 -4243.77978515625 -1189.30419921875 -4247.70703125 -1188.496459960938 C -4251.7294921875 -1187.669677734375 -4255.865234375 -1187.25048828125 -4259.99951171875 -1187.25048828125 C -4264.13525390625 -1187.25048828125 -4268.271484375 -1187.669677734375 -4272.29345703125 -1188.49658203125 C -4276.2216796875 -1189.3046875 -4280.07861328125 -1190.507690429688 -4283.75146484375 -1192.070190429688 C -4287.3623046875 -1193.602416992188 -4290.85107421875 -1195.503784179688 -4294.12255859375 -1197.722900390625 C -4297.35302734375 -1199.916625976562 -4300.38818359375 -1202.432739257812 -4303.142578125 -1205.200439453125 C -4305.89453125 -1207.964721679688 -4308.3984375 -1211.012573242188 -4310.58642578125 -1214.262573242188 C -4312.78662109375 -1217.535522460938 -4314.677734375 -1221.03564453125 -4316.20849609375 -1224.66796875 C -4317.7646484375 -1228.365356445312 -4318.9599609375 -1232.235107421875 -4319.7607421875 -1236.167846679688 C -4320.58203125 -1240.194580078125 -4320.99951171875 -1244.343994140625 -4321.00048828125 -1248.502319335938 L -4321.00048828125 -1330.500122070312 C -4321.00048828125 -1342.35546875 -4330.64501953125 -1352.00048828125 -4342.49951171875 -1352.00048828125 C -4354.35498046875 -1352.00048828125 -4364 -1342.35546875 -4364 -1330.500122070312 L -4364 -1248.527587890625 L -4363.99560546875 -1247.551391601562 C -4363.935546875 -1240.774169921875 -4363.2255859375 -1234.00439453125 -4361.8857421875 -1227.42822265625 C -4360.5224609375 -1220.726440429688 -4358.48388671875 -1214.128784179688 -4355.826171875 -1207.81787109375 C -4353.2197265625 -1201.62646484375 -4349.99267578125 -1195.654663085938 -4346.234375 -1190.06787109375 C -4342.513671875 -1184.534912109375 -4338.23876953125 -1179.329956054688 -4333.52978515625 -1174.598388671875 C -4328.82275390625 -1169.870727539062 -4323.64208984375 -1165.577026367188 -4318.1328125 -1161.836791992188 C -4312.57373046875 -1158.064086914062 -4306.630859375 -1154.823608398438 -4300.470703125 -1152.205810546875 C -4294.19580078125 -1149.539916992188 -4287.6318359375 -1147.492919921875 -4280.96044921875 -1146.121704101562 C -4274.1181640625 -1144.714599609375 -4267.0654296875 -1144.000610351562 -4259.99755859375 -1143.999633789062 L -4259.98974609375 -1138.000732421875 M -4259.99853515625 -1137.999633789062 L -4259.99951171875 -1137.999633789062 L -4260.001953125 -1137.999633789062 L -4260.001953125 -1138.000732421875 C -4260.0029296875 -1138.000732421875 -4260.00732421875 -1138.000732421875 -4260.0107421875 -1138.000732421875 C -4267.4716796875 -1138.000732421875 -4274.92626953125 -1138.755249023438 -4282.1689453125 -1140.24462890625 C -4289.23291015625 -1141.696655273438 -4296.1796875 -1143.86376953125 -4302.81689453125 -1146.683471679688 C -4309.3359375 -1149.453857421875 -4315.62109375 -1152.881103515625 -4321.501953125 -1156.8720703125 C -4327.32763671875 -1160.826904296875 -4332.8046875 -1165.3662109375 -4337.78173828125 -1170.365112304688 C -4342.7587890625 -1175.366088867188 -4347.2783203125 -1180.868408203125 -4351.21337890625 -1186.719482421875 C -4355.18896484375 -1192.629638671875 -4358.6005859375 -1198.944580078125 -4361.35595703125 -1205.489868164062 C -4364.16552734375 -1212.161254882812 -4366.32275390625 -1219.140869140625 -4367.76513671875 -1226.232299804688 C -4369.181640625 -1233.184326171875 -4369.931640625 -1240.333862304688 -4369.99560546875 -1247.497802734375 L -4370 -1247.497802734375 L -4370 -1248.501220703125 L -4370 -1330.500122070312 C -4370 -1345.687622070312 -4357.6884765625 -1358.00048828125 -4342.49951171875 -1358.00048828125 C -4327.3125 -1358.00048828125 -4315.00048828125 -1345.687622070312 -4315.00048828125 -1330.500122070312 L -4315.00048828125 -1248.502319335938 L -4314.99951171875 -1248.502319335938 C -4314.99951171875 -1244.751586914062 -4314.6240234375 -1241.005126953125 -4313.8818359375 -1237.367309570312 C -4313.1591796875 -1233.818359375 -4312.0810546875 -1230.328491210938 -4310.67822265625 -1226.99560546875 C -4309.29736328125 -1223.718627929688 -4307.5908203125 -1220.561157226562 -4305.60693359375 -1217.60986328125 C -4303.63623046875 -1214.6826171875 -4301.3779296875 -1211.932006835938 -4298.890625 -1209.433715820312 C -4296.39892578125 -1206.929931640625 -4293.6591796875 -1204.660766601562 -4290.751953125 -1202.686645507812 C -4287.80615234375 -1200.6884765625 -4284.66162109375 -1198.974243164062 -4281.40771484375 -1197.593505859375 C -4278.09228515625 -1196.18310546875 -4274.619140625 -1195.1005859375 -4271.08447265625 -1194.37353515625 C -4267.4619140625 -1193.628784179688 -4263.73193359375 -1193.25048828125 -4259.99951171875 -1193.25048828125 C -4256.267578125 -1193.25048828125 -4252.53857421875 -1193.628784179688 -4248.9150390625 -1194.37353515625 C -4245.38037109375 -1195.1005859375 -4241.908203125 -1196.18310546875 -4238.591796875 -1197.593505859375 C -4235.33740234375 -1198.974243164062 -4232.1943359375 -1200.6884765625 -4229.24853515625 -1202.686645507812 C -4226.34130859375 -1204.660766601562 -4223.6015625 -1206.929931640625 -4221.10888671875 -1209.433715820312 C -4218.62255859375 -1211.932006835938 -4216.36328125 -1214.6826171875 -4214.39208984375 -1217.60986328125 C -4212.40966796875 -1220.561157226562 -4210.703125 -1223.718627929688 -4209.322265625 -1226.99560546875 C -4207.91943359375 -1230.328491210938 -4206.84033203125 -1233.818359375 -4206.11767578125 -1237.367309570312 C -4205.375 -1241.005126953125 -4205 -1244.751586914062 -4205 -1248.502319335938 L -4205 -1330.500122070312 C -4205 -1345.687622070312 -4192.68798828125 -1358.00048828125 -4177.49951171875 -1358.00048828125 C -4162.31201171875 -1358.00048828125 -4150.00048828125 -1345.687622070312 -4150.00048828125 -1330.500122070312 L -4150.00048828125 -1247.497802734375 L -4150.0048828125 -1247.497802734375 C -4150.06884765625 -1240.333862304688 -4150.81787109375 -1233.184326171875 -4152.234375 -1226.232299804688 C -4153.677734375 -1219.140869140625 -4155.8349609375 -1212.161254882812 -4158.64453125 -1205.489868164062 C -4161.3994140625 -1198.944580078125 -4164.8115234375 -1192.629638671875 -4168.7861328125 -1186.719482421875 C -4172.72119140625 -1180.868408203125 -4177.24072265625 -1175.366088867188 -4182.21875 -1170.365112304688 C -4187.19482421875 -1165.3662109375 -4192.671875 -1160.826904296875 -4198.49853515625 -1156.8720703125 C -4204.3779296875 -1152.881103515625 -4210.66455078125 -1149.453857421875 -4217.1826171875 -1146.683471679688 C -4223.81982421875 -1143.86376953125 -4230.767578125 -1141.696655273438 -4237.83154296875 -1140.24462890625 C -4245.0732421875 -1138.755249023438 -4252.52880859375 -1138.000732421875 -4259.98974609375 -1138.000732421875 C -4259.9921875 -1138.000732421875 -4259.99658203125 -1138.000732421875 -4259.99853515625 -1138.000732421875 L -4259.99853515625 -1137.999633789062 Z" stroke="none" fill="#fff"/>
      </g>
      <g id="Union_14" data-name="Union 14" transform="translate(3191 -3225.001) rotate(-90)">
        <path d="M -4259.98974609375 -1141.000732421875 L -4259.99853515625 -1141.000732421875 L -4260.001953125 -1141.000732421875 L -4260.0107421875 -1141.000732421875 C -4267.2705078125 -1141.000732421875 -4274.5224609375 -1141.734985351562 -4281.564453125 -1143.18310546875 C -4288.43017578125 -1144.594482421875 -4295.18603515625 -1146.701049804688 -4301.64404296875 -1149.444580078125 C -4307.98291015625 -1152.138427734375 -4314.09716796875 -1155.47265625 -4319.8173828125 -1159.354370117188 C -4325.4853515625 -1163.202026367188 -4330.81396484375 -1167.618774414062 -4335.65576171875 -1172.481811523438 C -4340.49951171875 -1177.348754882812 -4344.896484375 -1182.702514648438 -4348.72412109375 -1188.393676757812 C -4352.58984375 -1194.140869140625 -4355.90966796875 -1200.284423828125 -4358.5908203125 -1206.65380859375 C -4361.3251953125 -1213.146606445312 -4363.4228515625 -1219.934814453125 -4364.8251953125 -1226.830200195312 C -4366.23583984375 -1233.7529296875 -4366.96728515625 -1240.879638671875 -4366.9990234375 -1248.013549804688 L -4367 -1248.224487304688 L -4367 -1248.501220703125 L -4367 -1300.500366210938 C -4367 -1303.80908203125 -4366.3525390625 -1307.017211914062 -4365.076171875 -1310.03564453125 C -4363.84228515625 -1312.95263671875 -4362.0751953125 -1315.572998046875 -4359.82421875 -1317.823974609375 C -4357.5732421875 -1320.074829101562 -4354.95263671875 -1321.841796875 -4352.03564453125 -1323.075561523438 C -4349.01708984375 -1324.352294921875 -4345.80859375 -1324.999633789062 -4342.49951171875 -1324.999633789062 C -4339.19091796875 -1324.999633789062 -4335.98291015625 -1324.352294921875 -4332.96435546875 -1323.075561523438 C -4330.04736328125 -1321.841796875 -4327.42724609375 -1320.074951171875 -4325.17626953125 -1317.823974609375 C -4322.92529296875 -1315.572998046875 -4321.158203125 -1312.95263671875 -4319.92431640625 -1310.03564453125 C -4318.64794921875 -1307.017211914062 -4318.00048828125 -1303.80908203125 -4318.00048828125 -1300.500366210938 L -4318.00048828125 -1248.502319335938 L -4318.00048828125 -1245.502319335938 L -4317.92333984375 -1245.502319335938 C -4317.77392578125 -1242.556396484375 -4317.4052734375 -1239.629638671875 -4316.8212890625 -1236.767578125 C -4316.0595703125 -1233.027099609375 -4314.9228515625 -1229.347412109375 -4313.443359375 -1225.831787109375 C -4311.98779296875 -1222.378173828125 -4310.189453125 -1219.049194335938 -4308.0966796875 -1215.936279296875 C -4306.01611328125 -1212.845825195312 -4303.63427734375 -1209.946411132812 -4301.0166015625 -1207.317016601562 C -4298.396484375 -1204.684204101562 -4295.509765625 -1202.291015625 -4292.43701171875 -1200.204711914062 C -4289.32763671875 -1198.095581054688 -4286.01171875 -1196.288208007812 -4282.57958984375 -1194.831909179688 C -4279.0869140625 -1193.34619140625 -4275.42236328125 -1192.202880859375 -4271.68896484375 -1191.43505859375 C -4267.86572265625 -1190.649047851562 -4263.9326171875 -1190.25048828125 -4259.99951171875 -1190.25048828125 C -4256.06787109375 -1190.25048828125 -4252.13525390625 -1190.649047851562 -4248.31103515625 -1191.434936523438 C -4244.57958984375 -1192.202514648438 -4240.91455078125 -1193.345703125 -4237.41748046875 -1194.832763671875 C -4233.990234375 -1196.286865234375 -4230.67431640625 -1198.094360351562 -4227.564453125 -1200.203857421875 C -4224.49169921875 -1202.290283203125 -4221.60498046875 -1204.683227539062 -4218.98291015625 -1207.317138671875 C -4216.36328125 -1209.949340820312 -4213.9814453125 -1212.848388671875 -4211.90380859375 -1215.934204101562 C -4209.8095703125 -1219.052001953125 -4208.01123046875 -1222.380615234375 -4206.5576171875 -1225.830688476562 C -4205.076171875 -1229.350463867188 -4203.939453125 -1233.030151367188 -4203.17822265625 -1236.768676757812 C -4202.396484375 -1240.597045898438 -4202 -1244.545288085938 -4202 -1248.502319335938 L -4202 -1300.500366210938 C -4202 -1303.80908203125 -4201.3525390625 -1307.017211914062 -4200.07568359375 -1310.03564453125 C -4198.84228515625 -1312.95263671875 -4197.0751953125 -1315.572998046875 -4194.82421875 -1317.823852539062 C -4192.5732421875 -1320.074829101562 -4189.95263671875 -1321.841796875 -4187.03564453125 -1323.075561523438 C -4184.0166015625 -1324.352294921875 -4180.80859375 -1324.999633789062 -4177.49951171875 -1324.999633789062 C -4174.19091796875 -1324.999633789062 -4170.982421875 -1324.352294921875 -4167.96435546875 -1323.075561523438 C -4165.04736328125 -1321.841796875 -4162.4267578125 -1320.074951171875 -4160.17578125 -1317.823974609375 C -4157.92529296875 -1315.572998046875 -4156.158203125 -1312.95263671875 -4154.92431640625 -1310.03564453125 C -4153.64794921875 -1307.017211914062 -4153.00048828125 -1303.80908203125 -4153.00048828125 -1300.500366210938 L -4153.00048828125 -1248.215942382812 L -4153.00146484375 -1248.013549804688 C -4153.033203125 -1240.876586914062 -4153.76416015625 -1233.749877929688 -4155.173828125 -1226.831298828125 C -4156.578125 -1219.93359375 -4158.67578125 -1213.145263671875 -4161.4091796875 -1206.654174804688 C -4164.08935546875 -1200.287475585938 -4167.40869140625 -1194.143920898438 -4171.275390625 -1188.393676757812 C -4175.103515625 -1182.701538085938 -4179.5009765625 -1177.347900390625 -4184.3447265625 -1172.481567382812 C -4189.185546875 -1167.618774414062 -4194.51416015625 -1163.2021484375 -4200.18310546875 -1159.354370117188 C -4205.89892578125 -1155.474609375 -4212.01318359375 -1152.140380859375 -4218.35595703125 -1149.444458007812 C -4224.81298828125 -1146.701293945312 -4231.56884765625 -1144.5947265625 -4238.435546875 -1143.183227539062 C -4245.47705078125 -1141.734985351562 -4252.72900390625 -1141.000732421875 -4259.98974609375 -1141.000732421875 Z" stroke="none"/>
        <path d="M -4259.98974609375 -1138.000732421875 L -4259.98974609375 -1144.000732421875 C -4252.93115234375 -1144.000732421875 -4245.8828125 -1144.71435546875 -4239.03955078125 -1146.121826171875 C -4232.36767578125 -1147.493286132812 -4225.80322265625 -1149.540161132812 -4219.52978515625 -1152.205444335938 C -4213.365234375 -1154.825439453125 -4207.4228515625 -1158.065795898438 -4201.8681640625 -1161.836547851562 C -4196.357421875 -1165.577026367188 -4191.1767578125 -1169.87060546875 -4186.47119140625 -1174.598022460938 C -4181.76171875 -1179.329345703125 -4177.486328125 -1184.5341796875 -4173.76513671875 -1190.067749023438 C -4170.005859375 -1195.657592773438 -4166.779296875 -1201.629516601562 -4164.17431640625 -1207.818603515625 C -4161.51708984375 -1214.127685546875 -4159.47802734375 -1220.7255859375 -4158.11376953125 -1227.430297851562 C -4156.7431640625 -1234.155151367188 -4156.0322265625 -1241.085083007812 -4156.00048828125 -1248.000122070312 L -4156.00048828125 -1300.500366210938 C -4156.00048828125 -1312.355102539062 -4165.64501953125 -1321.999633789062 -4177.49951171875 -1321.999633789062 C -4189.35498046875 -1321.999633789062 -4199 -1312.355102539062 -4199 -1300.500366210938 L -4199 -1248.502319335938 C -4199 -1244.344116210938 -4199.4169921875 -1240.194091796875 -4200.23828125 -1236.170043945312 C -4201.0390625 -1232.23828125 -4202.23486328125 -1228.368286132812 -4203.79296875 -1224.665649414062 C -4205.32177734375 -1221.038208007812 -4207.2119140625 -1217.538696289062 -4209.4150390625 -1214.258544921875 C -4211.599609375 -1211.01513671875 -4214.10302734375 -1207.9677734375 -4216.85693359375 -1205.200439453125 C -4219.61376953125 -1202.431518554688 -4222.64892578125 -1199.915649414062 -4225.88037109375 -1197.72119140625 C -4229.1513671875 -1195.50244140625 -4232.6396484375 -1193.60107421875 -4236.24365234375 -1192.072021484375 C -4239.92333984375 -1190.507202148438 -4243.77978515625 -1189.30419921875 -4247.70703125 -1188.496459960938 C -4251.7294921875 -1187.669677734375 -4255.865234375 -1187.25048828125 -4259.99951171875 -1187.25048828125 C -4264.13525390625 -1187.25048828125 -4268.271484375 -1187.669677734375 -4272.29345703125 -1188.49658203125 C -4276.2216796875 -1189.3046875 -4280.07861328125 -1190.507690429688 -4283.75146484375 -1192.070190429688 C -4287.3623046875 -1193.602416992188 -4290.85107421875 -1195.503784179688 -4294.12255859375 -1197.722900390625 C -4297.35302734375 -1199.916625976562 -4300.38818359375 -1202.432739257812 -4303.142578125 -1205.200439453125 C -4305.89453125 -1207.964721679688 -4308.3984375 -1211.012573242188 -4310.58642578125 -1214.262573242188 C -4312.78662109375 -1217.535522460938 -4314.677734375 -1221.03564453125 -4316.20849609375 -1224.66796875 C -4317.7646484375 -1228.365356445312 -4318.9599609375 -1232.235107421875 -4319.7607421875 -1236.167846679688 C -4320.58203125 -1240.194580078125 -4320.99951171875 -1244.343994140625 -4321.00048828125 -1248.502319335938 L -4321.00048828125 -1300.500366210938 C -4321.00048828125 -1312.355102539062 -4330.64501953125 -1321.999633789062 -4342.49951171875 -1321.999633789062 C -4354.35498046875 -1321.999633789062 -4364 -1312.355102539062 -4364 -1300.500366210938 L -4363.9990234375 -1248.026977539062 C -4363.96826171875 -1241.089477539062 -4363.25732421875 -1234.15966796875 -4361.8857421875 -1227.42822265625 C -4360.5224609375 -1220.726440429688 -4358.48388671875 -1214.128784179688 -4355.826171875 -1207.81787109375 C -4353.2197265625 -1201.62646484375 -4349.99267578125 -1195.654663085938 -4346.234375 -1190.06787109375 C -4342.513671875 -1184.534912109375 -4338.23876953125 -1179.329956054688 -4333.52978515625 -1174.598388671875 C -4328.82275390625 -1169.870727539062 -4323.64208984375 -1165.577026367188 -4318.1328125 -1161.836791992188 C -4312.57373046875 -1158.064086914062 -4306.630859375 -1154.823608398438 -4300.470703125 -1152.205810546875 C -4294.19580078125 -1149.539916992188 -4287.6318359375 -1147.492919921875 -4280.96044921875 -1146.121704101562 C -4274.1181640625 -1144.714599609375 -4267.0654296875 -1144.000610351562 -4259.99755859375 -1143.999633789062 L -4259.98974609375 -1138.000732421875 M -4259.99853515625 -1137.999633789062 L -4259.99951171875 -1137.999633789062 L -4260.001953125 -1137.999633789062 L -4260.001953125 -1138.000732421875 C -4260.0029296875 -1138.000732421875 -4260.00732421875 -1138.000732421875 -4260.0107421875 -1138.000732421875 C -4267.4716796875 -1138.000732421875 -4274.92626953125 -1138.755249023438 -4282.1689453125 -1140.24462890625 C -4289.23291015625 -1141.696655273438 -4296.1796875 -1143.86376953125 -4302.81689453125 -1146.683471679688 C -4309.3359375 -1149.453857421875 -4315.62109375 -1152.881103515625 -4321.501953125 -1156.8720703125 C -4327.32763671875 -1160.826904296875 -4332.8046875 -1165.3662109375 -4337.78173828125 -1170.365112304688 C -4342.7587890625 -1175.366088867188 -4347.2783203125 -1180.868408203125 -4351.21337890625 -1186.719482421875 C -4355.18896484375 -1192.629638671875 -4358.6005859375 -1198.944580078125 -4361.35595703125 -1205.489868164062 C -4364.16552734375 -1212.161254882812 -4366.32275390625 -1219.140869140625 -4367.76513671875 -1226.232299804688 C -4369.21484375 -1233.346923828125 -4369.96630859375 -1240.668090820312 -4369.9990234375 -1248.000122070312 L -4370 -1248.000122070312 L -4370 -1248.501220703125 L -4370 -1300.500366210938 C -4370 -1315.687744140625 -4357.6884765625 -1327.999633789062 -4342.49951171875 -1327.999633789062 C -4327.3125 -1327.999633789062 -4315.00048828125 -1315.687744140625 -4315.00048828125 -1300.500366210938 L -4315.00048828125 -1248.502319335938 L -4314.99951171875 -1248.502319335938 C -4314.99951171875 -1244.751586914062 -4314.6240234375 -1241.005126953125 -4313.8818359375 -1237.367309570312 C -4313.1591796875 -1233.818359375 -4312.0810546875 -1230.328491210938 -4310.67822265625 -1226.99560546875 C -4309.29736328125 -1223.718627929688 -4307.5908203125 -1220.561157226562 -4305.60693359375 -1217.60986328125 C -4303.63623046875 -1214.6826171875 -4301.3779296875 -1211.932006835938 -4298.890625 -1209.433715820312 C -4296.39892578125 -1206.929931640625 -4293.6591796875 -1204.660766601562 -4290.751953125 -1202.686645507812 C -4287.80615234375 -1200.6884765625 -4284.66162109375 -1198.974243164062 -4281.40771484375 -1197.593505859375 C -4278.09228515625 -1196.18310546875 -4274.619140625 -1195.1005859375 -4271.08447265625 -1194.37353515625 C -4267.4619140625 -1193.628784179688 -4263.73193359375 -1193.25048828125 -4259.99951171875 -1193.25048828125 C -4256.267578125 -1193.25048828125 -4252.53857421875 -1193.628784179688 -4248.9150390625 -1194.37353515625 C -4245.38037109375 -1195.1005859375 -4241.908203125 -1196.18310546875 -4238.591796875 -1197.593505859375 C -4235.33740234375 -1198.974243164062 -4232.1943359375 -1200.6884765625 -4229.24853515625 -1202.686645507812 C -4226.34130859375 -1204.660766601562 -4223.6015625 -1206.929931640625 -4221.10888671875 -1209.433715820312 C -4218.62255859375 -1211.932006835938 -4216.36328125 -1214.6826171875 -4214.39208984375 -1217.60986328125 C -4212.40966796875 -1220.561157226562 -4210.703125 -1223.718627929688 -4209.322265625 -1226.99560546875 C -4207.91943359375 -1230.328491210938 -4206.84033203125 -1233.818359375 -4206.11767578125 -1237.367309570312 C -4205.375 -1241.005126953125 -4205 -1244.751586914062 -4205 -1248.502319335938 L -4205 -1300.500366210938 C -4205 -1315.687744140625 -4192.68798828125 -1327.999633789062 -4177.49951171875 -1327.999633789062 C -4162.31201171875 -1327.999633789062 -4150.00048828125 -1315.687744140625 -4150.00048828125 -1300.500366210938 L -4150.00048828125 -1248.000122070312 L -4150.00146484375 -1248.000122070312 C -4150.0341796875 -1240.668090820312 -4150.78466796875 -1233.346923828125 -4152.234375 -1226.232299804688 C -4153.677734375 -1219.140869140625 -4155.8349609375 -1212.161254882812 -4158.64453125 -1205.489868164062 C -4161.3994140625 -1198.944580078125 -4164.8115234375 -1192.629638671875 -4168.7861328125 -1186.719482421875 C -4172.72119140625 -1180.868408203125 -4177.24072265625 -1175.366088867188 -4182.21875 -1170.365112304688 C -4187.19482421875 -1165.3662109375 -4192.671875 -1160.826904296875 -4198.49853515625 -1156.8720703125 C -4204.3779296875 -1152.881103515625 -4210.66455078125 -1149.453857421875 -4217.1826171875 -1146.683471679688 C -4223.81982421875 -1143.86376953125 -4230.767578125 -1141.696655273438 -4237.83154296875 -1140.24462890625 C -4245.0732421875 -1138.755249023438 -4252.52880859375 -1138.000732421875 -4259.98974609375 -1138.000732421875 C -4259.9921875 -1138.000732421875 -4259.99658203125 -1138.000732421875 -4259.99853515625 -1138.000732421875 L -4259.99853515625 -1137.999633789062 Z" stroke="none" fill="#fff"/>
      </g>
    </g>
  </g>
</svg>
