<?xml version="1.0" standalone="no"?>
<!DOCTYPE svg PUBLIC "-//W3C//DTD SVG 20010904//EN"
 "http://www.w3.org/TR/2001/REC-SVG-20010904/DTD/svg10.dtd">
<svg version="1.0" xmlns="http://www.w3.org/2000/svg"
 width="680.000000pt" height="680.000000pt" viewBox="0 0 680.000000 680.000000"
 preserveAspectRatio="xMidYMid meet">
<metadata>
Created by potrace 1.11, written by Peter Selinger 2001-2013
</metadata>
<g transform="translate(0.000000,680.000000) scale(0.100000,-0.100000)"
fill="#000000" stroke="none">
<path d="M845 6785 c-118 -25 -243 -81 -328 -147 -139 -108 -251 -277 -293
-443 -4 -16 -9 -37 -11 -45 -9 -29 -11 -265 -3 -286 5 -11 11 -34 13 -50 15
-87 82 -226 145 -303 62 -77 153 -161 172 -161 6 0 10 -4 10 -8 0 -4 22 -19
50 -33 27 -13 50 -27 50 -31 0 -5 9 -8 19 -8 11 0 22 -4 25 -9 3 -5 16 -11 28
-14 13 -3 52 -13 88 -22 81 -21 316 -35 340 -20 3 2 12 0 19 -4 7 -5 30 -5 51
-1 21 4 43 4 49 0 6 -3 34 -3 61 0 28 4 50 4 50 1 0 -3 30 -5 67 -4 192 5 274
5 278 1 3 -2 27 -2 55 2 27 4 50 2 50 -2 0 -5 4 -7 8 -4 5 3 44 5 88 5 43 1
97 1 119 2 22 1 47 1 55 0 60 -3 223 0 231 4 5 4 9 3 9 -2 0 -4 30 -7 67 -6
38 1 113 2 168 2 55 0 109 0 120 1 11 0 36 0 55 -1 19 -1 41 -1 48 0 17 1 148
1 230 0 75 0 276 0 307 1 11 0 36 0 55 -1 19 -1 41 -1 48 0 14 0 75 1 392 2
124 0 231 0 238 0 17 -1 140 -1 155 0 6 0 30 0 52 0 22 -1 49 -1 60 -1 11 1
66 0 122 0 57 -1 107 1 113 5 5 3 10 3 10 -2 0 -4 30 -7 67 -6 192 5 274 5
278 1 3 -2 27 -2 55 2 27 4 50 2 50 -2 0 -5 4 -7 8 -4 5 3 44 5 88 5 43 1 97
1 119 2 22 1 47 1 55 0 60 -3 223 0 231 4 5 4 9 3 9 -2 0 -4 33 -7 72 -6 144
5 228 4 238 -2 5 -3 10 -3 10 2 0 4 17 9 38 11 44 3 52 5 112 21 63 17 190 72
190 82 0 5 3 8 8 7 11 -4 91 54 142 104 95 90 163 195 205 317 31 89 36 119
40 236 3 87 0 123 -19 220 -12 58 -81 216 -98 223 -4 2 -8 10 -8 18 0 8 -4 14
-10 14 -5 0 -10 5 -10 10 0 10 -29 46 -85 105 -69 74 -173 139 -300 190 -24
10 -22 9 -60 18 -16 4 -41 11 -55 15 -14 4 -1154 8 -2535 8 -2003 2 -2522 0
-2570 -11z"/>
<path d="M1019 4406 c-2 -2 -44 -6 -92 -10 -246 -17 -484 -167 -614 -385 -24
-39 -43 -78 -43 -85 0 -8 -4 -16 -8 -18 -4 -1 -19 -37 -32 -78 l-25 -75 -2
-1525 c-2 -1256 0 -1535 11 -1583 7 -31 11 -57 8 -57 -3 0 -1 -5 6 -12 7 -7
12 -19 12 -28 1 -8 9 -33 20 -55 11 -22 19 -44 20 -48 1 -22 94 -151 154 -212
36 -37 66 -65 66 -62 0 3 12 -5 27 -19 14 -13 61 -42 102 -62 65 -33 87 -41
131 -53 3 0 12 -5 20 -9 43 -23 306 -35 375 -16 17 4 37 9 46 10 18 2 66 20
126 47 24 11 45 19 48 19 17 0 140 94 196 150 70 70 155 203 179 280 7 25 18
51 23 58 5 6 7 12 5 12 -3 0 0 25 8 56 8 37 13 141 14 307 1 139 1 257 1 262
0 6 0 197 0 425 -1 354 -2 651 -2 965 0 177 1 206 11 200 8 -5 159 -9 195 -5
9 1 76 1 230 -1 33 0 65 0 70 1 6 1 26 1 45 0 81 -5 120 -5 120 0 0 5 107 4
177 0 15 -1 30 -1 33 0 9 3 34 8 78 14 46 8 151 45 212 76 260 133 428 411
432 715 1 28 -15 161 -20 169 -3 5 -6 19 -7 30 -5 40 -58 161 -100 226 -102
160 -276 292 -440 335 -30 8 -59 16 -63 19 -7 4 -153 19 -179 18 -7 -1 -38 -1
-68 -1 -30 0 -62 0 -70 0 -8 0 -40 0 -70 0 -30 0 -61 0 -67 0 -7 0 -47 0 -88
0 -41 0 -84 0 -95 0 -11 0 -47 0 -80 0 -33 0 -64 0 -70 0 -5 0 -41 0 -80 0
-38 0 -78 0 -87 0 -10 0 -43 0 -73 0 -30 0 -61 0 -67 0 -7 0 -47 0 -88 0 -41
0 -84 0 -95 0 -11 0 -47 0 -80 0 -33 0 -64 0 -70 0 -5 0 -41 0 -80 0 -38 0
-79 0 -90 0 -11 0 -46 -1 -78 -1 -31 -1 -61 1 -66 4 -4 3 -10 4 -12 2z"/>
</g>
</svg>
